
        <svg xmlns="http://www.w3.org/2000/svg" xmlns:xlink="http://www.w3.org/1999/xlink" version="1.1" width="2280.1932367149757" height="3193.2367149758456" viewBox="0 0 2280.1932367149757 3193.2367149758456">
			
			<g transform="scale(9.66183574879227) translate(10, 10)">
				<defs id="SvgjsDefs1033"/><g id="SvgjsG1034" featureKey="rootContainer" transform="matrix(0.9,0,0,0.9,0,0)" fill="#fff"><path xmlns="http://www.w3.org/2000/svg" fill-rule="evenodd" d=" M0,0 H240 V345 H0,0 z M2,2 H238 V343 H2,2 z M6,6 H234 V339 H6 z M8,8 H232 V337 H6,8 z "/></g><g id="SvgjsG1035" featureKey="monogramFeature-0" transform="matrix(3.856567342265788,0,0,3.856567342265788,26.96751033347985,-34.10427028426102)" fill="#fff"><path d="M3.12 39 c0 -12.12 9.54 -21.6 21.6 -21.6 c4.98 0 9.72 1.62 14.1 4.8 l-3.3 5.1 c-3.48 -2.58 -6.78 -3.72 -10.8 -3.72 c-8.46 0 -15.06 6.72 -15.06 15.42 s6.6 15.42 15.06 15.42 c4.5 0 8.04 -1.32 10.8 -4.02 l3.36 4.98 c-3.6 3.3 -8.76 5.22 -14.16 5.22 c-12.06 0 -21.6 -9.54 -21.6 -21.6 z"/></g><g id="SvgjsG1036" featureKey="nameFeature-0" transform="matrix(0.5852762695798569,0,0,0.5852762695798569,36.712391760393956,213.35126233667444)" fill="#fff"><path d="M18.12 40.64 c-6.72 0 -15.92 -3.96 -15.92 -14.16 c0 -7 4.32 -15.12 15.36 -15.12 c4.56 0 8.6 1.4 8.12 2.8 l-0.48 1.48 c-1.24 3.8 -3.08 -1.36 -9.92 -1.36 c-5.84 0 -9.04 3.76 -9.04 9.84 c0 8.96 6.8 13 12.68 13 c0.68 0 3.96 -0.52 6.44 -2.08 c0.32 -0.2 1.08 0.6 0.84 0.96 c-1.72 2.48 -6.96 4.64 -8.08 4.64 z M56.522 39.08 c0.32 0 0.28 1 0 1.12 c-2.24 0.84 -5.56 0.56 -7.76 -2.28 l-6.24 -8 c-1.68 -2.16 -3.88 -2.56 -6.8 -2.6 l0 7.84 c0 2.8 1.84 3.28 4.52 3.6 c0.28 0.04 0.08 1.24 -0.24 1.24 l-11.56 0 c-0.32 0 -0.56 -1.2 -0.24 -1.24 c1.96 -0.28 3.36 -1 3.36 -3.6 l0 -18.08 c0 -2.64 -1.4 -3.4 -3.36 -3.92 c-0.32 -0.08 -0.12 -1.28 0.24 -1.24 c1.6 0.2 3.36 0.24 4.56 0.24 c2.68 0 5.24 -0.24 7.08 -0.24 c5.72 0 9.92 2.4 9.92 7.4 c0 4.76 -3.96 7.04 -7 7.24 l0 0.2 c1.48 0 2.48 0.64 4.16 2.76 l6.16 7.68 c1.12 1.44 2.2 1.88 3.2 1.88 z M36.962 25.6 c6 0 8.64 -1.04 8.64 -5.24 c0 -4.36 -2.88 -6.52 -6.56 -6.52 c-2.44 0 -3.32 0.96 -3.32 3.24 l0 8.52 l1.24 0 z M72.124 40.64 c-8.32 0 -14.36 -6.2 -14.36 -14.52 c0 -8.04 5.68 -14.76 14.44 -14.76 c8.36 0 14.36 6.2 14.36 14.48 c0 8.08 -5.64 14.8 -14.44 14.8 z M73.604 38.2 c3.68 0 8.84 -2.36 8.84 -10.28 c0 -8.28 -5.68 -14.12 -11.68 -14.12 c-3.72 0 -8.84 2.36 -8.84 10.24 c0 8.36 5.64 14.16 11.68 14.16 z M123.766 38.76 c0.32 0.04 0.08 1.24 -0.24 1.24 l-9.68 0 c-0.28 0 -0.52 -1.2 -0.24 -1.24 c1.48 -0.24 2.8 -0.92 2.68 -3.6 l-0.72 -14.48 l-7 14.24 c-0.72 1.48 -1.44 3.28 -1.56 4 c-0.08 0.44 -0.76 0.72 -1.32 0.72 s-0.88 -0.24 -1.12 -0.72 l-9.52 -18.08 l-0.6 14.32 c-0.12 2.68 1.24 3.44 2.68 3.6 c0.32 0.04 0.08 1.24 -0.2 1.24 l-7.96 0 c-0.32 0 -0.56 -1.2 -0.24 -1.24 c1.72 -0.2 3.24 -0.8 3.36 -3.6 l1.2 -23.12 c0.04 -0.6 1.4 -0.64 1.72 0 l11.64 22 l10.88 -22 c0.32 -0.64 1.68 -0.6 1.72 0 l1.2 23.12 c0.12 2.8 1.56 3.4 3.32 3.6 z M168.12800000000001 12 c0.52 0 0.64 1.16 0.12 1.24 c-1.64 0.24 -2.84 0.84 -4.24 4.36 l-6.04 15.56 c-1.24 3.16 -1.92 5.24 -1.92 6.84 c0 0.24 -2.8 0.88 -2.92 0.6 l-6.28 -16.16 l-3.6 8.72 c-1.28 3.16 -1.88 5.32 -1.88 6.84 c0 0.24 -2.84 0.88 -2.96 0.6 l-9 -22.96 c-1.36 -3.56 -2.6 -4.12 -4.16 -4.36 c-0.52 -0.08 -0.4 -1.28 0.12 -1.28 l9.76 0 c0.52 0 0.64 1.2 0.12 1.28 c-1.64 0.36 -2.84 0.96 -1.56 4.32 l6.6 17.2 l4.24 -10.24 c0.88 -2.12 1 -3.44 -0.16 -6.44 c-1.4 -3.64 -2.44 -4.6 -3.48 -4.84 c-0.48 -0.12 -0.4 -1.28 0.12 -1.28 l7.12 0 c0.4 0 0.48 0.12 0.48 0.28 c0 0.48 -1.6 1.64 -0.16 5.32 l6.52 17.04 l6.6 -17.04 c1.32 -3.44 0.08 -3.96 -2 -4.32 c-0.44 -0.08 -0.32 -1.28 0.12 -1.28 l8.44 0 z M169.37 40.08 c-0.4 0.04 -0.56 -1.2 -0.24 -1.28 c2.36 -0.6 4.16 -0.96 4.16 -3.92 l0 -17.92 c0 -2.68 -1.64 -3.36 -3.4 -3.8 c-0.32 -0.08 -0.16 -1.28 0.24 -1.24 c2.92 0.24 7.2 0.24 10.16 0.24 c3.64 0 6.36 -0.16 9.52 -0.24 c0.92 0 0.92 0.64 0.72 1.52 l-1 3.8 c-0.12 0.52 -1.08 0.52 -1.24 0 c-0.56 -1.88 -1.84 -3.2 -6.92 -3.2 c-3 0 -3.92 0.72 -3.92 2.92 l0 6.64 c0 1.04 0.52 1.24 1.32 1.24 l0.76 0 c3.56 0 6.24 -0.24 8 -1.92 c0.36 -0.36 1.2 -0.28 0.88 0.48 l-2.36 5.04 c-0.28 0.68 -0.84 0.6 -1.28 0 c-0.96 -1.24 -3.04 -1.72 -5.56 -1.72 l-0.44 0 c-0.8 0 -1.32 0.2 -1.32 1.24 l0 6.92 c0 2.32 1.04 3.08 4.48 3.08 c6.48 0 8.56 -2.6 9.56 -4.28 c0.32 -0.52 1.28 -0.4 1.28 0.36 c0 2.2 -1.68 6 -4.12 6.04 c-1.92 -0.12 -4.48 -0.24 -7.92 -0.24 c-3.68 0 -7.68 -0.12 -11.36 0.24 z M193.972 40.08 c-0.4 0.04 -0.56 -1.2 -0.24 -1.28 c2.36 -0.6 4.16 -0.96 4.16 -3.92 l0 -18.04 c0 -2.8 -1.64 -3.36 -3.4 -3.6 c-0.32 -0.04 -0.08 -1.24 0.2 -1.24 l10.44 0 c0.32 0 0.52 1.2 0.24 1.24 c-1.72 0.2 -3.32 0.8 -3.32 3.6 l0 18.04 c0 2.32 1.04 3.08 4.48 3.08 c6.48 0 8.56 -2.6 9.56 -4.28 c0.32 -0.52 1.28 -0.4 1.28 0.36 c0 2.2 -1.68 6 -4.12 6.04 c-1.92 -0.12 -4.48 -0.24 -7.92 -0.24 c-3.68 0 -7.68 -0.12 -11.36 0.24 z M218.174 40.08 c-0.4 0.04 -0.56 -1.2 -0.24 -1.28 c2.36 -0.6 4.16 -0.96 4.16 -3.92 l0 -18.04 c0 -2.8 -1.64 -3.36 -3.4 -3.6 c-0.32 -0.04 -0.08 -1.24 0.2 -1.24 l10.44 0 c0.32 0 0.52 1.2 0.24 1.24 c-1.72 0.2 -3.32 0.8 -3.32 3.6 l0 18.04 c0 2.32 1.04 3.08 4.48 3.08 c6.48 0 8.56 -2.6 9.56 -4.28 c0.32 -0.52 1.28 -0.4 1.28 0.36 c0 2.2 -1.68 6 -4.12 6.04 c-1.92 -0.12 -4.48 -0.24 -7.92 -0.24 c-3.68 0 -7.68 -0.12 -11.36 0.24 z"/></g><g id="SvgjsG1037" featureKey="nameFeature-1" transform="matrix(1.0632315560398926,0,0,1.0632315560398926,35.66088976553093,234.92169394432491)" fill="#fff"><path d="M18.12 40.64 c-6.72 0 -15.92 -3.96 -15.92 -14.16 c0 -7 4.32 -15.12 15.36 -15.12 c4.56 0 8.6 1.4 8.12 2.8 l-0.48 1.48 c-1.24 3.8 -3.08 -1.36 -9.92 -1.36 c-5.84 0 -9.04 3.76 -9.04 9.84 c0 8.96 6.8 13 12.68 13 c0.68 0 3.96 -0.52 6.44 -2.08 c0.32 -0.2 1.08 0.6 0.84 0.96 c-1.72 2.48 -6.96 4.64 -8.08 4.64 z M58.082 38.76 c0.32 0.04 0.08 1.24 -0.24 1.24 l-10.4 0 c-0.32 0 -0.56 -1.2 -0.24 -1.24 c2 -0.28 3.36 -1 3.36 -3.6 l0 -7.16 c-0.2 -0.68 -1.04 -0.68 -1.8 -0.68 l-11.24 0 c-0.76 0 -1.6 0 -1.8 0.68 l0 7.16 c0 2.8 1.6 3.36 3.32 3.6 c0.32 0.04 0.08 1.24 -0.24 1.24 l-10.36 0 c-0.32 0 -0.56 -1.2 -0.24 -1.24 c1.96 -0.28 3.36 -1 3.36 -3.6 l0 -18.32 c0 -2.6 -1.4 -3.32 -3.36 -3.6 c-0.32 -0.04 -0.08 -1.24 0.24 -1.24 l10.36 0 c0.32 0 0.56 1.2 0.24 1.24 c-1.72 0.24 -3.32 0.8 -3.32 3.6 l0 7.6 c0.2 0.68 1.04 0.68 1.8 0.68 l11.24 0 c0.76 0 1.6 0 1.8 -0.68 l0 -7.6 c0 -2.6 -1.36 -3.32 -3.36 -3.6 c-0.32 -0.04 -0.08 -1.24 0.24 -1.24 l10.4 0 c0.32 0 0.56 1.2 0.24 1.24 c-1.76 0.24 -3.36 0.8 -3.36 3.6 l0 18.32 c0 2.8 1.6 3.36 3.36 3.6 z M89.044 38.72 c0.56 0.08 0.4 1.28 -0.08 1.28 l-9.96 0 c-0.52 0 -0.6 -1.2 -0.12 -1.28 c1.52 -0.24 3.04 -0.84 1.56 -4.32 l-0.6 -1.4 c-0.36 -0.92 -1.24 -0.96 -2.52 -0.96 l-8.32 0 c-1.2 0 -2.08 0.04 -2.44 0.96 l-0.56 1.4 c-1.48 3.56 0.04 4.04 2.04 4.32 c0.48 0.08 0.4 1.28 -0.12 1.28 l-8.44 0 c-0.52 0 -0.64 -1.2 -0.12 -1.28 c1.68 -0.24 2.64 -0.88 4.12 -4.32 l6.76 -15.4 c1.56 -3.52 2.04 -5.28 2.04 -6.8 c0 -0.24 2.84 -0.88 2.96 -0.6 l9.76 22.76 c1.48 3.48 2.44 4.12 4.04 4.36 z M77.324 30 c0.6 0 1.28 -0.08 1.04 -0.6 l-5.12 -12.16 l-5.12 12.16 c-0.24 0.52 0.4 0.6 1 0.6 l8.2 0 z M98.726 40.64 c-3.32 0 -8.12 -1.52 -7.68 -3.2 l0.36 -1.4 c1.08 -3.88 2.28 1.96 8.88 1.96 c3.48 0 5.44 -1.68 5.44 -4.2 c0 -2.08 -1.52 -3 -4.08 -4.52 l-4.48 -2.72 c-4.08 -2.48 -5.68 -4.24 -5.68 -7 c0 -4.76 4.56 -8.2 9.64 -8.2 c3.08 0 6.84 1.28 6.44 2.64 l-0.48 1.48 c-1.12 3.6 -2.16 -1.52 -7.64 -1.52 c-3.08 0 -4.64 1.6 -4.64 3.76 c0 1.76 1.08 2.8 3.76 4.44 l4.68 2.8 c4.08 2.44 5.72 4.28 5.72 7.04 c0 4.88 -4.88 8.64 -10.24 8.64 z M110.568 40.08 c-0.4 0.04 -0.56 -1.2 -0.24 -1.28 c2.36 -0.6 4.16 -0.96 4.16 -3.92 l0 -17.92 c0 -2.68 -1.64 -3.36 -3.4 -3.8 c-0.32 -0.08 -0.16 -1.28 0.24 -1.24 c2.92 0.24 7.2 0.24 10.16 0.24 c3.64 0 6.36 -0.16 9.52 -0.24 c0.92 0 0.92 0.64 0.72 1.52 l-1 3.8 c-0.12 0.52 -1.08 0.52 -1.24 0 c-0.56 -1.88 -1.84 -3.2 -6.92 -3.2 c-3 0 -3.92 0.72 -3.92 2.92 l0 6.64 c0 1.04 0.52 1.24 1.32 1.24 l0.76 0 c3.56 0 6.24 -0.24 8 -1.92 c0.36 -0.36 1.2 -0.28 0.88 0.48 l-2.36 5.04 c-0.28 0.68 -0.84 0.6 -1.28 0 c-0.96 -1.24 -3.04 -1.72 -5.56 -1.72 l-0.44 0 c-0.8 0 -1.32 0.2 -1.32 1.24 l0 6.92 c0 2.32 1.04 3.08 4.48 3.08 c6.48 0 8.56 -2.6 9.56 -4.28 c0.32 -0.52 1.28 -0.4 1.28 0.36 c0 2.2 -1.68 6 -4.12 6.04 c-1.92 -0.12 -4.48 -0.24 -7.92 -0.24 c-3.68 0 -7.68 -0.12 -11.36 0.24 z"/></g>
			</g>
		</svg>
	